<svg width="350" height="354" viewBox="0 0 350 354" fill="none" xmlns="http://www.w3.org/2000/svg">
<g clip-path="url(#clip0_3878_196)">
<path d="M78.5357 59.1418L75.875 73.0919L89.1403 76.8265L87.4921 61.9333L78.5357 59.1418Z" fill="#A0616A"/>
<path d="M0.260742 347.908C0.260742 348.346 0.613308 348.698 1.05235 348.698H348.469C348.908 348.698 349.261 348.346 349.261 347.908C349.261 347.469 348.908 347.117 348.469 347.117H1.05235C0.613308 347.117 0.260742 347.469 0.260742 347.908Z" fill="#3F3D56"/>
<path d="M237.09 158.496H100.283C84.7689 158.496 72.1924 171.055 72.1924 186.549V319.029C72.1924 334.522 84.7689 347.082 100.283 347.082H237.09C252.604 347.082 265.18 334.522 265.18 319.029V186.549C265.18 171.055 252.604 158.496 237.09 158.496Z" fill="white"/>
<path d="M237.09 347.746H100.283C84.4272 347.746 71.5273 334.864 71.5273 319.029V186.549C71.5273 170.714 84.4272 157.832 100.283 157.832H237.09C252.946 157.832 265.846 170.714 265.846 186.549V319.029C265.846 334.864 252.946 347.746 237.09 347.746ZM100.283 159.16C85.1606 159.16 72.8577 171.447 72.8577 186.549V319.029C72.8577 334.131 85.1606 346.417 100.283 346.417H237.09C252.212 346.417 264.515 334.131 264.515 319.029V186.549C264.515 171.447 252.212 159.16 237.09 159.16L100.283 159.16Z" fill="#3F3D56"/>
<path d="M247 215.931H192.011C189.678 215.931 187.781 214.036 187.781 211.707C187.781 209.377 189.678 207.482 192.011 207.482H247C249.332 207.482 251.23 209.377 251.23 211.707C251.23 214.036 249.332 215.931 247 215.931Z" fill="#F9A826"/>
<path d="M195.413 249.15H141.961C140.613 249.15 139.517 248.055 139.517 246.709C139.517 245.364 140.613 244.269 141.961 244.269H195.413C196.76 244.269 197.856 245.364 197.856 246.709C197.856 248.055 196.76 249.15 195.413 249.15Z" fill="#F9A826"/>
<path d="M119.864 167.568H89.347C89.233 167.568 89.1406 167.661 89.1406 167.775V171.322C89.1406 171.436 89.233 171.528 89.347 171.528H119.864C119.978 171.528 120.07 171.436 120.07 171.322V167.775C120.07 167.661 119.978 167.568 119.864 167.568Z" fill="#F9A826"/>
<path d="M222.655 171.529C224.407 171.529 225.827 170.11 225.827 168.361C225.827 166.611 224.407 165.193 222.655 165.193C220.903 165.193 219.482 166.611 219.482 168.361C219.482 170.11 220.903 171.529 222.655 171.529Z" fill="#3F3D56"/>
<path d="M231.378 171.529C233.13 171.529 234.551 170.11 234.551 168.361C234.551 166.611 233.13 165.193 231.378 165.193C229.626 165.193 228.206 166.611 228.206 168.361C228.206 170.11 229.626 171.529 231.378 171.529Z" fill="#3F3D56"/>
<path d="M240.102 171.529C241.854 171.529 243.274 170.11 243.274 168.361C243.274 166.611 241.854 165.193 240.102 165.193C238.35 165.193 236.93 166.611 236.93 168.361C236.93 170.11 238.35 171.529 240.102 171.529Z" fill="#3F3D56"/>
<path d="M99.9502 262.215C99.9502 262.653 100.303 263.005 100.742 263.005H236.631C237.07 263.005 237.423 262.653 237.423 262.215C237.423 261.776 237.07 261.424 236.631 261.424H100.742C100.303 261.424 99.9502 261.776 99.9502 262.215Z" fill="#3F3D56"/>
<path d="M141.394 67.2283C144.287 64.8411 147.865 64.3967 149.386 66.2356C150.907 68.0745 149.795 71.4997 146.901 73.8874C145.758 74.857 144.399 75.5392 142.938 75.8768L130.552 85.837L125.996 79.933L138.689 70.7408C139.297 69.371 140.225 68.1666 141.394 67.2283Z" fill="#A0616A"/>
<path d="M69.8072 89.7011C69.8009 89.2607 69.805 85.4184 72.6534 82.9899C75.9253 80.2002 80.5423 81.3294 82.1616 81.7254C85.9023 82.6402 86.2091 84.2428 89.7221 85.8893C96.2944 88.9699 88.0595 87.3931 91.9702 86.4053C93.3239 86.0634 112.798 84.7146 117.646 81.735C127.074 75.9401 133.498 72.426 133.498 72.426L137.697 80.8136C137.697 80.8136 131.625 89.2458 123.079 95.4925C114.312 101.9 109.929 105.104 103.267 106.342C102.694 106.448 88.5852 108.854 77.222 100.376C74.6301 98.4422 69.8812 94.899 69.8072 89.7011Z" fill="#E6E6E6"/>
<path d="M82.8337 68.3696C90.9131 68.3696 97.4627 61.8287 97.4627 53.7602C97.4627 45.6916 90.9131 39.1508 82.8337 39.1508C74.7542 39.1508 68.2046 45.6916 68.2046 53.7602C68.2046 61.8287 74.7542 68.3696 82.8337 68.3696Z" fill="#A0616A"/>
<path d="M197.403 151.912L182.337 136.511L174.56 144.613L185.785 159.379L196.918 160.651L197.403 151.912Z" fill="#A0616A"/>
<path d="M111.376 123.032C112.257 123.105 115.058 123.665 117.734 122.194C119.561 121.191 120.498 119.698 120.814 119.224C124.74 113.336 139.806 104.155 153.329 103.59C156.391 103.462 158.406 103.816 160.238 104.77C162.836 106.122 163.873 108.059 167.17 112.597C168.973 115.079 170.968 117.418 172.793 119.884C183.477 134.323 187.528 135.457 187.114 140.086C186.654 145.222 181.108 150.095 177.421 149.532C175.912 149.302 175.327 148.253 173.31 146.131C167.396 139.908 164.949 141.058 160.738 136.291C155.822 130.727 156.466 126.113 153.901 125.934C151.522 125.769 150.511 129.705 145.434 134.934C143.11 137.327 141.455 138.425 136.415 141.917C116.785 155.517 116.472 156.472 112.51 157.557C110.777 158.032 98.4751 161.4 94.0928 156.04C87.2351 147.652 103.436 122.373 111.376 123.032Z" fill="#2F2E41"/>
<path d="M192.797 155.392C193.905 154.895 195.201 154.314 195.618 152.978C195.9 152.074 195.737 150.96 195.154 150.189C194.482 149.301 193.486 149.184 193.526 149.026C193.588 148.787 195.942 148.88 198.527 149.793C199.014 149.965 201.224 150.771 204.034 152.963C206.286 154.718 205.983 155.07 207.395 156.083C211.73 159.19 215.795 156.741 218.141 159.655C219.046 160.78 219.432 162.376 219.051 163.668C218.286 166.26 214.566 167.153 212.533 167.613C207.636 168.723 203.93 167.817 200.059 167.166C186.898 164.951 179.503 166.968 178.513 163.923C178.326 163.347 178.63 163.396 179.645 159.167C180.646 154.992 180.614 153.846 181.467 153.512C182.751 153.009 183.613 155.297 186.848 156.081C189.714 156.775 192.079 155.714 192.797 155.392Z" fill="#2F2E41"/>
<path d="M170.619 202.295L166.812 181.102L155.822 183.445L156.806 201.958L165.304 209.254L170.619 202.295Z" fill="#A0616A"/>
<path d="M115.675 130.155C116.363 130.71 118.365 132.744 121.407 133.028C123.482 133.222 125.097 132.512 125.625 132.297C132.184 129.626 149.814 130.479 161.32 137.594C163.926 139.206 165.395 140.629 166.374 142.446C167.764 145.021 167.533 147.206 167.709 152.809C167.805 155.874 168.141 158.928 168.264 161.992C168.986 179.931 171.7 183.141 168.755 186.739C165.487 190.731 158.157 191.653 155.423 189.12C154.303 188.083 154.409 186.887 153.933 184C152.539 175.534 149.868 175.114 149.063 168.808C148.125 161.447 151.252 157.99 149.23 156.404C147.354 154.933 144.305 157.624 137.163 159.103C133.895 159.78 131.909 159.76 125.774 159.823C101.884 160.068 101.087 160.683 97.1996 159.359C95.4986 158.78 83.4256 154.668 82.8134 147.776C81.8554 136.989 109.475 125.157 115.675 130.155Z" fill="#2F2E41"/>
<path d="M164.851 202.591C166.047 202.802 167.445 203.047 168.542 202.176C169.283 201.586 169.776 200.572 169.726 199.608C169.67 198.496 168.912 197.84 169.033 197.733C169.219 197.569 171.114 198.967 172.74 201.171C173.047 201.587 174.421 203.493 175.515 206.883C176.391 209.598 175.942 209.719 176.542 211.349C178.381 216.351 183.122 216.604 183.424 220.331C183.541 221.769 182.962 223.307 181.921 224.162C179.83 225.878 176.25 224.53 174.309 223.771C169.633 221.943 167.076 219.115 164.239 216.406C154.594 207.193 147.341 204.715 148.234 201.64C148.403 201.058 148.627 201.269 151.845 198.339C155.021 195.447 155.639 194.48 156.532 194.681C157.878 194.985 157.304 197.363 159.54 199.825C161.522 202.006 164.075 202.455 164.851 202.591Z" fill="#2F2E41"/>
<path d="M84.8281 56.5531C85.3976 54.5186 84.6823 53.7772 85.4114 52.8639C85.4114 52.8639 85.7048 52.4964 88.3278 51.5048C87.5539 47.0206 88.1333 46.2623 88.1333 46.2623C88.8012 45.3884 90.139 45.1771 91.0497 45.2915C92.9759 45.5332 93.3169 47.2721 94.5494 47.2331C96.252 47.1792 98.2941 43.7756 97.6603 40.8256C97.1432 38.4193 94.9139 36.6322 94.355 36.9423C93.8009 37.2498 91.8062 35.894 91.0498 36.1656C90.5331 36.3512 88.1014 36.1044 87.5501 36.3598C86.9479 36.6388 85.2235 38.3758 85.0586 38.1569C83.913 36.6361 83.9373 36.1051 83.2727 35.7773C82.0948 35.1965 80.8143 36.27 78.6064 37.3306C74.0635 39.5129 72.7333 38.2111 70.6349 40.049C69.5749 40.9773 69.0065 42.7516 67.9129 46.2623C66.3836 51.1719 65.6189 53.6267 66.3575 55.9706C67.1107 58.3609 68.22 57.8407 69.8572 61.2131C71.6797 64.9671 71.0515 67.1492 72.7736 68.0089C74.1045 68.6733 76.2434 68.2505 77.051 67.0381C78.4336 64.9623 74.8599 62.1544 76.0789 58.8831C76.8271 56.875 79.1352 55.3524 80.5507 55.7764C82.1511 56.2558 82.269 59.1216 83.2727 59.0772C84.1321 59.0393 84.7288 56.9076 84.8281 56.5531Z" fill="#2F2E41"/>
<path d="M73.7461 70.5331C76.7398 67.181 88.9335 70.6505 90.078 75.9697C90.5488 78.1576 88.8109 79.0814 89.3003 81.6006C90.0161 85.2852 94.069 85.034 97.0774 88.7847C101.348 94.1096 96.9484 99.3149 101.744 108.201C102.768 110.1 103.632 111.701 105.438 113.25C109.582 116.804 113.438 115.585 115.548 118.88C117.126 121.345 116.478 124.382 116.326 125.094C115.703 128.011 114.015 128.722 112.826 131.113C110.847 135.09 113.088 138.011 113.215 142.763C113.374 148.709 110.21 156.951 103.882 159.655C96.7735 162.694 88.1997 157.662 84.0507 152.665C81.5751 149.684 80.8564 146.934 79.7734 143.54C74.9329 128.369 72.1982 129.741 68.4966 117.715C64.2649 103.968 63.433 87.8621 68.4966 82.7656C69.1677 82.09 71.0148 80.5287 72.1907 77.7172C73.7731 73.9341 72.4061 72.0336 73.7461 70.5331Z" fill="#E6E6E6"/>
<path d="M117.98 148.565C120.301 151.51 120.661 155.093 118.784 156.568C116.907 158.042 113.504 156.85 111.183 153.904C110.24 152.74 109.589 151.367 109.286 149.9L99.6094 137.298L104.609 133.489L114.528 145.781C115.885 146.42 117.069 147.375 117.98 148.565Z" fill="#A0616A"/>
<path d="M82.5418 83.3081C82.9723 83.2121 86.7396 82.4321 89.7014 84.7213C93.1037 87.3509 92.9389 92.095 92.8811 93.7589C92.7476 97.6027 91.2393 98.2296 90.342 102C88.6632 109.054 91.8603 115.609 93.6266 119.231C94.238 120.485 96.2022 124.321 100.112 128.452C107.717 136.487 114.502 140.715 114.502 140.715L107.213 147.185C107.213 147.185 95.6019 143.651 87.7345 136.57C79.6645 129.307 67.2541 103.609 64.6814 97.3492C64.4598 96.8101 67.5982 105.574 73.5905 92.7354C74.9573 89.8068 77.4616 84.441 82.5418 83.3081Z" fill="#E6E6E6"/>
<path d="M182.484 280.311C177.851 281.02 174.462 283.982 174.914 286.927C175.366 289.871 179.489 291.683 184.123 290.973C185.978 290.714 187.745 290.016 189.274 288.936L208.867 285.684L207.559 277.95L188.011 280.712C186.227 280.14 184.332 280.002 182.484 280.311Z" fill="#FFB6B6"/>
<path d="M266.911 256.203L259.314 272.302L221.123 285.141L189.432 286.83L188.639 279.228L222.984 272.057L258.227 255.425L266.911 256.203Z" fill="#E6E6E6"/>
<path d="M196.473 317.331L189.652 334.56L180.826 328.55L186.041 310.52L196.473 317.331Z" fill="#FFB6B6"/>
<path d="M167.987 310.921L149.933 328.149L157.154 335.762L175.61 321.338L167.987 310.921Z" fill="#FFB6B6"/>
<path d="M270.295 254.827L270.095 253.425L265.481 244.41L250.235 248.416L253.043 260.837L270.295 254.827Z" fill="#FFB6B6"/>
<path d="M263.876 314.927L264.345 320.945C264.345 320.945 266.283 346.18 250.636 348.183C234.989 350.186 228.168 352.19 218.941 336.564L204.497 310.921L196.061 320.945L184.838 312.123C184.838 312.123 192.862 280.871 199.281 279.669C200.084 279.518 200.886 279.443 201.676 279.427C206.99 279.316 212 281.912 215.18 286.166L233.384 310.52L240.004 307.515L263.876 314.927Z" fill="#2F2E41"/>
<path d="M177.215 333.759L180.826 326.948L191.257 334.16C191.257 334.16 193.664 342.974 190.054 344.176C186.443 345.378 176.413 343.776 176.413 343.776C176.413 343.776 157.957 347.782 157.556 344.176C157.155 340.57 165.981 339.769 165.981 339.769L177.215 333.759Z" fill="#2F2E41"/>
<path d="M216.533 328.951L188.649 311.405L174.406 324.143L164.777 312.924C164.777 312.924 182.43 286.881 187.646 285.679C192.862 284.476 201.287 283.675 201.287 283.675L226.965 307.315L216.533 328.951Z" fill="#2F2E41"/>
<path d="M149.531 326.547L158.759 336.564L157.542 337.603C157.542 337.603 155.148 348.016 149.531 344.493C143.915 340.971 143.513 340.17 143.513 340.17C143.513 340.17 127.465 343.776 125.86 337.365C124.255 330.954 128.669 332.156 128.669 332.156L132.676 334.56L149.531 326.547Z" fill="#2F2E41"/>
<path d="M255.049 252.824C262.14 252.824 267.888 247.083 267.888 240.002C267.888 232.921 262.14 227.181 255.049 227.181C247.959 227.181 242.21 232.921 242.21 240.002C242.21 247.083 247.959 252.824 255.049 252.824Z" fill="#FFB6B6"/>
<path d="M252.04 258.233L270.496 252.623C270.496 252.623 277.717 269.451 276.514 277.064C275.31 284.677 264.345 320.945 264.345 320.945L240.004 307.515C240.004 307.515 239.603 299.502 238.399 295.896C237.195 292.29 233.384 281.271 241.809 272.056C250.235 262.84 252.04 258.233 252.04 258.233Z" fill="#E6E6E6"/>
<path d="M211.42 342.366C208.417 345.959 207.839 350.42 210.129 352.328C212.42 354.237 216.71 352.871 219.714 349.275C220.934 347.856 221.796 346.165 222.227 344.345L234.76 328.958L228.655 324.024L215.83 339.014C214.113 339.763 212.601 340.913 211.42 342.366Z" fill="#FFB6B6"/>
<path d="M266.196 266.316L270.558 283.572L249.208 317.702L227.412 339.578L220.348 333.725L242.329 306.412L258.991 271.219L266.196 266.316Z" fill="#E6E6E6"/>
<path d="M243.214 237.799C246.506 237.791 246.693 237.813 247.226 237.799C251.31 237.691 252.377 236.086 254.447 236.196C258.142 236.391 253.266 254.889 251.238 263.441C249.249 271.829 255.97 279.344 256.453 279.869C263.276 287.279 275.26 288.634 277.316 285.478C278.981 282.924 273.082 279.041 274.508 273.458C275.902 268.001 282.338 268.582 284.137 263.441C286.021 258.058 279.689 255.342 275.711 242.206C273.427 234.662 273.831 233.256 271.699 228.583C266.001 216.093 238.072 221.411 241.208 232.991C241.814 235.23 240.2 237.806 243.214 237.799Z" fill="#2F2E41"/>
<path d="M284.21 85.5917H149.278C145.462 85.5917 142.358 82.4913 142.358 78.6808V7.10134C142.358 3.29088 145.462 0.19043 149.278 0.19043H284.21C288.026 0.19043 291.13 3.29087 291.13 7.10134V78.6808C291.13 82.4913 288.026 85.5917 284.21 85.5917Z" fill="white"/>
<path d="M284.21 85.5917H149.278C145.462 85.5917 142.358 82.4913 142.358 78.6808V7.10134C142.358 3.29088 145.462 0.19043 149.278 0.19043H284.21C288.026 0.19043 291.13 3.29087 291.13 7.10134V78.6808C291.13 82.4913 288.026 85.5917 284.21 85.5917ZM149.278 1.3445C146.1 1.3445 143.514 3.92708 143.514 7.10134V78.6808C143.514 81.8551 146.1 84.4377 149.278 84.4377H284.21C287.389 84.4377 289.975 81.8551 289.975 78.6808V7.10134C289.975 3.92708 287.389 1.3445 284.21 1.3445H149.278Z" fill="#3F3D56"/>
<path d="M273.796 8.846C274.753 8.846 275.529 8.07096 275.529 7.11489C275.529 6.15883 274.753 5.38379 273.796 5.38379C272.839 5.38379 272.062 6.15883 272.062 7.11489C272.062 8.07096 272.839 8.846 273.796 8.846Z" fill="#3F3D56"/>
<path d="M278.418 8.846C279.376 8.846 280.152 8.07096 280.152 7.11489C280.152 6.15883 279.376 5.38379 278.418 5.38379C277.461 5.38379 276.685 6.15883 276.685 7.11489C276.685 8.07096 277.461 8.846 278.418 8.846Z" fill="#3F3D56"/>
<path d="M283.041 8.846C283.998 8.846 284.774 8.07096 284.774 7.11489C284.774 6.15883 283.998 5.38379 283.041 5.38379C282.084 5.38379 281.308 6.15883 281.308 7.11489C281.308 8.07096 282.084 8.846 283.041 8.846Z" fill="#3F3D56"/>
<path d="M152.181 35.1011C151.703 35.1011 151.314 35.4893 151.314 35.9666C151.314 36.1994 151.404 36.4146 151.567 36.5735C151.732 36.742 151.948 36.8322 152.181 36.8322H281.885C282.363 36.8322 282.752 36.4439 282.752 35.9666C282.752 35.7339 282.662 35.5186 282.499 35.3597C282.334 35.1912 282.118 35.1011 281.885 35.1011H152.181Z" fill="#E6E6E6"/>
<path d="M265.707 34.8126V37.1208H152.181C151.863 37.1208 151.574 36.9938 151.366 36.7803C151.152 36.5726 151.025 36.2841 151.025 35.9667C151.025 35.3319 151.545 34.8126 152.181 34.8126H265.707Z" fill="#F9A826"/>
<path d="M280.441 30.4848H268.884C267.61 30.4848 266.573 29.4496 266.573 28.1767C266.573 26.9037 267.61 25.8685 268.884 25.8685H280.441C281.715 25.8685 282.752 26.9037 282.752 28.1767C282.752 29.4496 281.715 30.4848 280.441 30.4848Z" fill="#E6E6E6"/>
<path d="M204.748 18.367H153.048C151.773 18.367 150.736 17.3319 150.736 16.0589C150.736 14.7859 151.773 13.7507 153.048 13.7507H204.748C206.022 13.7507 207.059 14.7859 207.059 16.0589C207.059 17.3319 206.022 18.367 204.748 18.367Z" fill="#E6E6E6"/>
<path d="M152.181 61.0677C151.703 61.0677 151.314 61.456 151.314 61.9333C151.314 62.166 151.404 62.3813 151.567 62.5402C151.732 62.7087 151.948 62.7989 152.181 62.7989H281.885C282.363 62.7989 282.752 62.4106 282.752 61.9333C282.752 61.7006 282.662 61.4853 282.499 61.3264C282.334 61.1579 282.118 61.0677 281.885 61.0677H152.181Z" fill="#E6E6E6"/>
<path d="M221.215 60.7792V63.0873H152.181C151.863 63.0873 151.574 62.9604 151.366 62.7469C151.152 62.5391 151.025 62.2506 151.025 61.9332C151.025 61.2985 151.545 60.7792 152.181 60.7792H221.215Z" fill="#F9A826"/>
<path d="M280.441 56.4514H268.884C267.61 56.4514 266.573 55.4162 266.573 54.1432C266.573 52.8703 267.61 51.8351 268.884 51.8351H280.441C281.715 51.8351 282.752 52.8703 282.752 54.1432C282.752 55.4162 281.715 56.4514 280.441 56.4514Z" fill="#E6E6E6"/>
</g>
<defs>
<clipPath id="clip0_3878_196">
<rect width="349" height="353" fill="white" transform="translate(0.260742 0.19043)"/>
</clipPath>
</defs>
</svg>
